<svg xmlns="http://www.w3.org/2000/svg" width="797" height="584" viewBox="0 0 797 584" version="1.1"><path d="M 295 29.482 C 222.813 37.218, 160.372 71.102, 114.374 127.500 C 84.837 163.715, 64.950 210.474, 58.446 259 C 56.778 271.445, 56.542 306.777, 58.033 320.789 C 64.574 382.245, 93.673 441.296, 138.217 483.506 C 208.252 549.870, 305.592 573.099, 398 545.498 C 427.086 536.811, 461.351 518.785, 484.746 499.864 C 489.011 496.415, 496.239 490.229, 500.810 486.119 C 509.120 478.646, 509.120 478.646, 495.323 464.823 C 487.735 457.220, 481.136 451, 480.658 451 C 480.180 451, 476.349 454.225, 472.144 458.167 C 430.233 497.463, 372.647 518.701, 313.500 516.677 C 280.770 515.556, 254.115 509.124, 225.036 495.328 C 209.674 488.040, 200.353 482.487, 187.500 472.964 C 141.342 438.768, 110.056 388.601, 99.975 332.618 C 93.225 295.130, 95.814 257.573, 107.584 222.234 C 135.822 137.456, 210.639 77.839, 299.856 69.023 C 349.030 64.164, 402.052 77.466, 444.282 105.256 C 455.969 112.947, 470.500 124.529, 470.500 126.154 C 470.500 126.672, 460.858 136.022, 449.073 146.933 C 427.645 166.771, 427.645 166.771, 420.073 161.006 C 405.541 149.945, 390.529 142.103, 372.223 136.013 C 353.972 129.941, 344.746 128.596, 321 128.545 C 303.326 128.507, 298.984 128.819, 289.500 130.807 C 236.843 141.849, 194.707 174.635, 171.991 222.241 C 144.509 279.832, 153.373 348.603, 194.668 398.190 C 201.412 406.288, 214.840 419.260, 215.984 418.781 C 216.641 418.507, 220.472 414.015, 234.288 397.318 C 241.059 389.137, 241.059 389.137, 232.144 380.145 C 214.982 362.836, 203.700 341.714, 198.416 317 C 196.127 306.298, 195.831 279.888, 197.883 269.500 C 206.682 224.953, 238.730 188.444, 281.660 174.061 C 296.421 169.115, 307.163 167.704, 325.500 168.302 C 346.669 168.992, 359.119 171.999, 375.990 180.495 C 392.240 188.679, 402.839 197.113, 419.267 214.938 C 426.034 222.280, 426.034 222.280, 428.226 220.390 C 430.259 218.638, 443.618 206.313, 472 180.005 C 478.325 174.143, 493.400 160.205, 505.500 149.034 C 517.600 137.862, 527.665 128.290, 527.866 127.762 C 528.504 126.092, 490.924 89.693, 480.713 82.091 C 426.372 41.632, 359.198 22.603, 295 29.482 M 393 331.500 C 393 404, 393 404, 407.952 404 C 422.905 404, 422.905 404, 423.202 368.750 C 423.492 334.505, 423.563 333.381, 425.727 329.334 C 428.441 324.259, 432.142 321.497, 438.308 319.944 C 447.397 317.655, 456.263 320.883, 460.446 328.003 C 462.400 331.329, 462.515 333.273, 462.797 367.750 C 463.093 404, 463.093 404, 478.098 404 C 493.103 404, 493.103 404, 492.801 362.750 C 492.505 322.158, 492.463 321.420, 490.203 316.500 C 486.610 308.677, 483.227 304.395, 477.651 300.614 C 459.720 288.454, 432.834 293.908, 424.903 311.314 C 424.230 312.791, 423.301 314, 422.839 314 C 422.378 314, 422 301.625, 422 286.500 C 422 259, 422 259, 407.500 259 C 393 259, 393 259, 393 331.500 M 553.500 294.973 C 533.465 299.411, 519.791 312.744, 514.289 333.207 C 512.006 341.697, 512.074 359.238, 514.425 368 C 520.969 392.395, 539.587 405.970, 566.500 405.970 C 582.524 405.970, 595.956 401.146, 604.916 392.172 C 609.560 387.521, 615 378.184, 615 374.865 C 615 372.899, 612.624 372.450, 597 371.463 C 587.500 370.863, 587.500 370.863, 585.726 374.181 C 583.284 378.748, 578.304 381.895, 571.896 382.922 C 556.097 385.453, 545.066 377.689, 542.524 362.250 C 541.824 358, 541.824 358, 578.912 358 C 616 358, 616 358, 615.983 349.250 C 615.930 322.728, 604.486 304.339, 583.419 296.926 C 576.754 294.580, 560.162 293.497, 553.500 294.973 M 670.263 295.453 C 646.968 300.742, 632.516 319.678, 631.302 346.500 C 629.671 382.567, 650.461 406.043, 683.980 405.985 C 703.367 405.952, 717.374 399.225, 726.069 385.772 C 729.297 380.777, 733 369.708, 733 365.053 C 733 364.365, 728.021 364, 718.625 364 C 704.250 364, 704.250 364, 703.603 367.234 C 702.601 372.243, 698.417 377.747, 693.831 380.086 C 690.522 381.774, 688.366 382.129, 683.353 381.810 C 674.908 381.272, 669.675 377.671, 665.513 369.532 C 662.600 363.837, 662.500 363.192, 662.500 350.071 C 662.500 338.025, 662.758 335.940, 664.799 331.512 C 669.099 322.184, 675.196 318, 684.492 318 C 694.226 318, 699.534 321.628, 702.944 330.611 C 704.799 335.500, 704.799 335.500, 718.650 335.500 C 732.500 335.500, 732.500 335.500, 732.160 331.046 C 731.010 315.994, 719.101 302.034, 703 296.862 C 694.609 294.167, 678.905 293.491, 670.263 295.453 M 561.500 317.026 C 551.951 318.450, 544.767 325.548, 542.548 335.750 C 541.841 339, 541.841 339, 564.966 339 C 588.091 339, 588.091 339, 587.412 335.250 C 585.099 322.479, 574.573 315.076, 561.500 317.026" stroke="none" fill="#4c35c9" fill-rule="evenodd"/><path d="M -0 292.001 C -0 584.002, 0 584.002, 398.750 583.751 C 797.500 583.500, 797.500 583.500, 797.752 291.750 C 798.003 0, 798.003 0, 399.002 0 C 0 0, 0 0, -0 292.001 M 0.493 292.500 C 0.493 453.100, 0.609 518.651, 0.750 438.169 C 0.891 357.687, 0.891 226.287, 0.750 146.169 C 0.609 66.051, 0.493 131.900, 0.493 292.500 M 295 29.482 C 222.813 37.218, 160.372 71.102, 114.374 127.500 C 84.837 163.715, 64.950 210.474, 58.446 259 C 56.778 271.445, 56.542 306.777, 58.033 320.789 C 64.574 382.245, 93.673 441.296, 138.217 483.506 C 208.252 549.870, 305.592 573.099, 398 545.498 C 427.086 536.811, 461.351 518.785, 484.746 499.864 C 489.011 496.415, 496.239 490.229, 500.810 486.119 C 509.120 478.646, 509.120 478.646, 495.323 464.823 C 487.735 457.220, 481.136 451, 480.658 451 C 480.180 451, 476.349 454.225, 472.144 458.167 C 430.233 497.463, 372.647 518.701, 313.500 516.677 C 280.770 515.556, 254.115 509.124, 225.036 495.328 C 209.674 488.040, 200.353 482.487, 187.500 472.964 C 141.342 438.768, 110.056 388.601, 99.975 332.618 C 93.225 295.130, 95.814 257.573, 107.584 222.234 C 135.822 137.456, 210.639 77.839, 299.856 69.023 C 349.030 64.164, 402.052 77.466, 444.282 105.256 C 455.969 112.947, 470.500 124.529, 470.500 126.154 C 470.500 126.672, 460.858 136.022, 449.073 146.933 C 427.645 166.771, 427.645 166.771, 420.073 161.006 C 405.541 149.945, 390.529 142.103, 372.223 136.013 C 353.972 129.941, 344.746 128.596, 321 128.545 C 303.326 128.507, 298.984 128.819, 289.500 130.807 C 236.843 141.849, 194.707 174.635, 171.991 222.241 C 144.509 279.832, 153.373 348.603, 194.668 398.190 C 201.412 406.288, 214.840 419.260, 215.984 418.781 C 216.641 418.507, 220.472 414.015, 234.288 397.318 C 241.059 389.137, 241.059 389.137, 232.144 380.145 C 214.982 362.836, 203.700 341.714, 198.416 317 C 196.127 306.298, 195.831 279.888, 197.883 269.500 C 206.682 224.953, 238.730 188.444, 281.660 174.061 C 296.421 169.115, 307.163 167.704, 325.500 168.302 C 346.669 168.992, 359.119 171.999, 375.990 180.495 C 392.240 188.679, 402.839 197.113, 419.267 214.938 C 426.034 222.280, 426.034 222.280, 428.226 220.390 C 430.259 218.638, 443.618 206.313, 472 180.005 C 478.325 174.143, 493.400 160.205, 505.500 149.034 C 517.600 137.862, 527.665 128.290, 527.866 127.762 C 528.504 126.092, 490.924 89.693, 480.713 82.091 C 426.372 41.632, 359.198 22.603, 295 29.482 M 393 331.500 C 393 404, 393 404, 407.952 404 C 422.905 404, 422.905 404, 423.202 368.750 C 423.492 334.505, 423.563 333.381, 425.727 329.334 C 428.441 324.259, 432.142 321.497, 438.308 319.944 C 447.397 317.655, 456.263 320.883, 460.446 328.003 C 462.400 331.329, 462.515 333.273, 462.797 367.750 C 463.093 404, 463.093 404, 478.098 404 C 493.103 404, 493.103 404, 492.801 362.750 C 492.505 322.158, 492.463 321.420, 490.203 316.500 C 486.610 308.677, 483.227 304.395, 477.651 300.614 C 459.720 288.454, 432.834 293.908, 424.903 311.314 C 424.230 312.791, 423.301 314, 422.839 314 C 422.378 314, 422 301.625, 422 286.500 C 422 259, 422 259, 407.500 259 C 393 259, 393 259, 393 331.500 M 553.500 294.973 C 533.465 299.411, 519.791 312.744, 514.289 333.207 C 512.006 341.697, 512.074 359.238, 514.425 368 C 520.969 392.395, 539.587 405.970, 566.500 405.970 C 582.524 405.970, 595.956 401.146, 604.916 392.172 C 609.560 387.521, 615 378.184, 615 374.865 C 615 372.899, 612.624 372.450, 597 371.463 C 587.500 370.863, 587.500 370.863, 585.726 374.181 C 583.284 378.748, 578.304 381.895, 571.896 382.922 C 556.097 385.453, 545.066 377.689, 542.524 362.250 C 541.824 358, 541.824 358, 578.912 358 C 616 358, 616 358, 615.983 349.250 C 615.930 322.728, 604.486 304.339, 583.419 296.926 C 576.754 294.580, 560.162 293.497, 553.500 294.973 M 670.263 295.453 C 646.968 300.742, 632.516 319.678, 631.302 346.500 C 629.671 382.567, 650.461 406.043, 683.980 405.985 C 703.367 405.952, 717.374 399.225, 726.069 385.772 C 729.297 380.777, 733 369.708, 733 365.053 C 733 364.365, 728.021 364, 718.625 364 C 704.250 364, 704.250 364, 703.603 367.234 C 702.601 372.243, 698.417 377.747, 693.831 380.086 C 690.522 381.774, 688.366 382.129, 683.353 381.810 C 674.908 381.272, 669.675 377.671, 665.513 369.532 C 662.600 363.837, 662.500 363.192, 662.500 350.071 C 662.500 338.025, 662.758 335.940, 664.799 331.512 C 669.099 322.184, 675.196 318, 684.492 318 C 694.226 318, 699.534 321.628, 702.944 330.611 C 704.799 335.500, 704.799 335.500, 718.650 335.500 C 732.500 335.500, 732.500 335.500, 732.160 331.046 C 731.010 315.994, 719.101 302.034, 703 296.862 C 694.609 294.167, 678.905 293.491, 670.263 295.453 M 561.500 317.026 C 551.951 318.450, 544.767 325.548, 542.548 335.750 C 541.841 339, 541.841 339, 564.966 339 C 588.091 339, 588.091 339, 587.412 335.250 C 585.099 322.479, 574.573 315.076, 561.500 317.026" stroke="none" fill="#fbfbfb" fill-rule="evenodd"/></svg>