<?xml version="1.0" standalone="no"?>
<!DOCTYPE svg PUBLIC "-//W3C//DTD SVG 20010904//EN"
 "http://www.w3.org/TR/2001/REC-SVG-20010904/DTD/svg10.dtd">
<svg version="1.0" xmlns="http://www.w3.org/2000/svg"
 width="400.000000pt" height="400.000000pt" viewBox="0 0 400.000000 400.000000"
 preserveAspectRatio="xMidYMid meet">

<g transform="translate(0.000000,400.000000) scale(0.100000,-0.100000)"
fill="#000000" stroke="none">
<path d="M1344 3515 c-39 -26 -739 -846 -751 -878 -7 -18 -21 -153 -32 -302
-12 -148 -32 -418 -47 -598 -25 -314 -25 -329 -8 -355 9 -15 54 -76 99 -137
529 -716 567 -765 592 -771 37 -10 641 160 668 187 20 19 20 35 23 1348 1 838
-1 1339 -7 1355 -6 14 -20 32 -33 40 -23 15 -433 126 -466 126 -10 0 -27 -7
-38 -15z m195 -170 c58 -14 105 -26 107 -28 3 -3 -630 -405 -634 -402 -2 2 86
107 195 233 125 146 204 229 213 227 8 -2 62 -16 119 -30z m199 -978 l-3 -284
-452 266 c-248 147 -454 268 -456 271 -3 3 200 136 452 296 l456 291 3 -278
c1 -153 1 -405 0 -562z m-520 -137 c237 -140 432 -257 432 -260 0 -8 -1001
-432 -1006 -427 -5 5 64 917 72 955 l5 24 32 -19 c18 -11 227 -133 465 -273z
m522 -866 c0 -267 -3 -483 -7 -481 -67 34 -963 553 -963 557 1 5 946 407 963
409 4 1 7 -218 7 -485z m-207 -526 c87 -50 157 -92 155 -93 -10 -10 -430 -116
-441 -112 -11 4 -392 507 -476 627 -7 11 126 -60 295 -156 170 -97 380 -217
467 -266z"/>
<path d="M2376 3471 c-172 -46 -224 -63 -238 -81 -17 -21 -18 -84 -18 -1364 0
-1321 0 -1343 20 -1363 10 -12 27 -24 37 -27 38 -11 375 -105 491 -137 114
-31 126 -32 150 -18 15 8 177 217 360 464 328 444 332 450 332 498 0 26 -21
305 -46 620 -32 400 -49 578 -59 593 -30 46 -728 850 -749 861 -31 18 -42 16
-280 -46z m389 -288 c94 -108 186 -214 205 -237 19 -22 28 -36 20 -32 -78 45
-629 400 -626 404 4 3 202 57 226 61 3 1 82 -87 175 -196z m-31 -273 c245
-156 443 -287 438 -291 -6 -7 -847 -505 -893 -530 -18 -9 -19 8 -19 556 0 479
2 565 14 558 7 -4 214 -136 460 -293z m559 -452 c25 -285 70 -908 66 -912 -6
-6 -1009 416 -1009 424 0 5 920 548 931 549 3 1 9 -27 12 -61z m-645 -767
c207 -88 415 -176 462 -196 47 -20 96 -41 109 -46 22 -9 16 -15 -85 -73 -641
-369 -864 -496 -868 -496 -4 0 -6 218 -6 485 0 267 2 485 5 485 3 0 175 -72
383 -159z m580 -438 c-8 -10 -117 -156 -241 -324 l-227 -306 -123 33 c-67 19
-166 45 -220 60 -62 17 -95 30 -89 36 14 14 895 517 906 518 5 0 2 -8 -6 -17z"/>
</g>
</svg>
